<svg width="159" height="131" viewBox="0 0 159 131" fill="none" xmlns="http://www.w3.org/2000/svg">
<path fill-rule="evenodd" clip-rule="evenodd" d="M43.687 59.7872C43.687 50.8818 47.4602 42.3412 54.1764 36.0442C60.8926 29.7472 70.0018 26.2095 79.5 26.2095C88.9982 26.2095 98.1074 29.7472 104.824 36.0442C111.54 42.3412 115.313 50.8818 115.313 59.7872H79.5H43.687Z" fill="#E3E4E5" stroke="black"/>
<path fill-rule="evenodd" clip-rule="evenodd" d="M115.313 59.7872C115.313 68.6926 111.54 77.2332 104.824 83.5302C98.1074 89.8272 88.9982 93.3649 79.5 93.3649V59.7872H115.313Z" fill="#0071BC" stroke="black"/>
<path d="M123.284 75.576H79.5V105.47L123.284 75.576Z" fill="#828282" stroke="black"/>
<path d="M84.6255 63.83H82.4945L81.81 81.8444H85.3101L84.6255 63.83Z" fill="#E3E4E5" stroke="black" stroke-width="0.5"/>
<path d="M82.0345 62.9921H85.0991V64.0454H82.0345V62.9921Z" fill="#E3E4E5" stroke="black" stroke-width="0.5"/>
<path fill-rule="evenodd" clip-rule="evenodd" d="M106.381 81.8445V72.5494L101.888 74.6215V72.5494L97.336 74.6215V72.5494L92.7836 74.6215V72.5494L88.2313 74.6215V72.5494L83.6105 74.6215V81.8445H106.381Z" fill="#E3E4E5" stroke="black" stroke-width="0.5"/>
<path d="M106.394 75.4506L83.6853 75.332L106.394 75.4506Z" fill="#E3E4E5"/>
<path d="M106.394 75.4506L83.6853 75.332" stroke="black" stroke-width="0.5"/>
<path fill-rule="evenodd" clip-rule="evenodd" d="M104.883 76.6476L103.781 76.6198L103.486 78.4457L105.119 78.4307L104.883 76.6476Z" fill="#E3E4E5" stroke="black" stroke-width="0.5"/>
<path d="M101.976 79.0703C101.011 79.0703 100.235 79.6537 100.235 80.3784V81.8445H101.976H103.717V80.3784C103.717 79.6537 102.94 79.0703 101.976 79.0703Z" fill="#E3E4E5" stroke="black" stroke-width="0.5"/>
<path fill-rule="evenodd" clip-rule="evenodd" d="M43.687 59.7872C43.687 68.6926 47.4602 77.2332 54.1764 83.5302C60.8926 89.8272 70.0018 93.3649 79.5 93.3649V59.7872H43.687Z" fill="#0071BC" stroke="black"/>
<path d="M35.7161 75.576H79.5V105.47L35.7161 75.576Z" fill="#008F4C" stroke="black"/>
<path fill-rule="evenodd" clip-rule="evenodd" d="M60.5068 75.7846C61.1129 76.4341 61.3954 77.1992 61.6801 78.0029C62.0173 78.9545 62.5094 79.6069 62.88 80.4531C63.2259 81.2429 63.2902 81.8782 63.3095 82.7256C63.3176 83.0838 63.9913 82.7418 63.8463 83.1433C63.7748 83.3412 63.9689 83.2872 64.1871 83.4256C64.4087 83.5663 64.8985 83.9317 65.1523 83.684C65.3103 83.8781 65.7432 83.5515 65.6124 83.3315C64.8744 82.8693 64.4272 82.0472 64.2481 81.4206C64.0277 80.6496 64.5647 79.8308 64.3847 79.0591C64.3068 78.7251 64.3284 78.3799 64.4186 78.0423C64.7229 76.9026 64.5424 76.492 64.815 75.8397" fill="#E3E4E5"/>
<path d="M60.5068 75.7846C61.1129 76.4341 61.3954 77.1992 61.6801 78.0029C62.0173 78.9545 62.5094 79.6069 62.88 80.4531C63.2259 81.2429 63.2902 81.8782 63.3095 82.7256C63.3176 83.0838 63.9913 82.7418 63.8463 83.1433C63.7748 83.3412 63.9689 83.2872 64.1871 83.4256C64.4087 83.5663 64.8985 83.9317 65.1523 83.684C65.3103 83.8781 65.7432 83.5515 65.6124 83.3315C64.8744 82.8693 64.4272 82.0472 64.2481 81.4206C64.0277 80.6496 64.5647 79.8308 64.3847 79.0591C64.3068 78.7251 64.3284 78.3799 64.4186 78.0423C64.7229 76.9026 64.5424 76.492 64.815 75.8397" stroke="black" stroke-width="0.75" stroke-linecap="round" stroke-linejoin="round"/>
<path fill-rule="evenodd" clip-rule="evenodd" d="M66.1194 84.1288C65.6186 84.34 65.1005 84.28 64.6608 84.002C64.4075 83.806 64.1892 83.7927 64.4283 83.5622C64.9829 83.6845 65.4319 83.598 65.6123 83.3314C65.7963 83.5742 65.9965 83.8705 66.1194 84.1288Z" fill="#E3E4E5" stroke="black" stroke-width="0.75" stroke-linecap="round" stroke-linejoin="round"/>
<path fill-rule="evenodd" clip-rule="evenodd" d="M65.769 84.3624C65.2373 84.546 64.7347 84.4221 64.3468 84.0605C64.1925 83.8838 64.1428 83.6232 64.1864 83.4216C64.6076 83.5894 65.1786 83.637 65.401 83.5118C65.5335 83.7796 65.6983 84.085 65.769 84.3624Z" fill="#E3E4E5" stroke="black" stroke-width="0.75" stroke-linecap="round" stroke-linejoin="round"/>
<path fill-rule="evenodd" clip-rule="evenodd" d="M50.3528 84.17C49.8398 84.3553 49.326 84.2692 48.9037 83.9694C48.6626 83.7609 48.428 83.7418 48.6809 83.5239C49.2273 83.674 49.6573 83.6684 49.8537 83.4114C50.0227 83.6631 50.2457 83.9059 50.3528 84.17Z" fill="#E3E4E5" stroke="black" stroke-width="0.75" stroke-linecap="round" stroke-linejoin="round"/>
<path fill-rule="evenodd" clip-rule="evenodd" d="M50.6829 75.459C50.5718 76.6412 48.7147 77.5277 48.4217 78.1051C48.1983 78.5454 48.0394 78.9352 48.0744 79.4549C48.1406 80.4381 48.9631 81.695 49.473 82.5631C49.6136 82.8025 49.8894 83.3532 49.8651 83.4313C49.7923 83.6648 48.7257 83.6992 48.4266 83.3885C48.2444 82.9146 47.8504 82.9909 47.789 82.9597C47.7023 82.7398 47.7486 82.5625 47.7153 82.2949C47.6605 81.8537 47.6233 81.4786 47.4975 81.1335C47.2598 80.4811 46.8315 79.9547 46.6523 79.2899C46.5266 78.8236 46.1968 78.827 46.0296 78.4181C45.8384 77.9508 46.1631 77.0002 45.889 76.5684C45.5464 76.0285 44.6388 76.0251 44.201 74.7791" fill="#E3E4E5"/>
<path d="M50.6829 75.459C50.5718 76.6412 48.7147 77.5277 48.4217 78.1051C48.1983 78.5454 48.0394 78.9352 48.0744 79.4549C48.1406 80.4381 48.9631 81.695 49.473 82.5631C49.6136 82.8025 49.8894 83.3532 49.8651 83.4313C49.7923 83.6648 48.7257 83.6992 48.4266 83.3885C48.2444 82.9146 47.8504 82.9909 47.789 82.9597C47.7023 82.7398 47.7486 82.5625 47.7153 82.2949C47.6605 81.8537 47.6233 81.4786 47.4975 81.1335C47.2598 80.4811 46.8315 79.9547 46.6523 79.2899C46.5266 78.8236 46.1968 78.827 46.0296 78.4181C45.8384 77.9508 46.1631 77.0002 45.889 76.5684C45.5464 76.0285 44.6388 76.0251 44.201 74.7791" stroke="black" stroke-width="0.75" stroke-linecap="round" stroke-linejoin="round"/>
<path fill-rule="evenodd" clip-rule="evenodd" d="M49.9888 84.3838C49.4466 84.5401 48.9382 84.4004 48.5866 84.0102C48.4287 83.835 48.371 83.5819 48.4268 83.3829C48.8373 83.5718 49.4537 83.6057 49.686 83.5535C49.802 83.8275 49.935 84.1033 49.9888 84.3838Z" fill="#E3E4E5" stroke="black" stroke-width="0.75" stroke-linecap="round" stroke-linejoin="round"/>
<path fill-rule="evenodd" clip-rule="evenodd" d="M45.3408 84.0411C44.8643 84.301 44.3427 84.2928 43.8766 84.0599C43.6045 83.89 43.3784 83.618 43.5926 83.3649C43.9379 83.2254 44.326 83.2879 44.6826 83.2814C44.8894 83.5258 45.1474 83.7231 45.3408 84.0411V84.0411Z" fill="#E3E4E5" stroke="black" stroke-width="0.75" stroke-linecap="round" stroke-linejoin="round"/>
<path fill-rule="evenodd" clip-rule="evenodd" d="M45.0164 84.3042C44.5063 84.5397 43.9782 84.4806 43.5703 84.1451C43.3123 83.9329 43.1563 83.5843 43.4068 83.3242C43.7407 83.2303 44.0419 83.1671 44.3944 83.2035C44.5765 83.5702 44.8752 83.9204 45.0164 84.3042Z" fill="#E3E4E5" stroke="black" stroke-width="0.75" stroke-linecap="round" stroke-linejoin="round"/>
<path fill-rule="evenodd" clip-rule="evenodd" d="M48.7454 78.8362C48.6132 79.5971 47.7667 79.5311 48.0509 78.7559L48.7454 78.8362Z" fill="#E3E4E5"/>
<path d="M48.7454 78.8362C48.6132 79.5971 47.7667 79.5311 48.0509 78.7559" stroke="black" stroke-width="0.75" stroke-linecap="round" stroke-linejoin="round"/>
<path fill-rule="evenodd" clip-rule="evenodd" d="M49.5904 78.7448C49.8626 79.5239 48.9758 79.9901 48.8865 78.8704L49.5904 78.7448Z" fill="#E3E4E5"/>
<path d="M49.5904 78.7448C49.8626 79.5239 48.9758 79.9901 48.8865 78.8704" stroke="black" stroke-width="0.75" stroke-linecap="round" stroke-linejoin="round"/>
<path fill-rule="evenodd" clip-rule="evenodd" d="M45.4034 75.904C44.5028 78.5103 46.717 79.7078 48.1804 78.888C50.0867 79.7212 50.5878 77.6006 50.1515 76.3435" fill="#E3E4E5"/>
<path d="M45.4034 75.904C44.5028 78.5103 46.717 79.7078 48.1804 78.888C50.0867 79.7212 50.5878 77.6006 50.1515 76.3435" stroke="black" stroke-width="0.75" stroke-linecap="round" stroke-linejoin="round"/>
<path fill-rule="evenodd" clip-rule="evenodd" d="M45.8727 78.4586C45.5047 79.1918 46.3289 79.9411 46.4734 78.6987L45.8727 78.4586Z" fill="#E3E4E5"/>
<path d="M45.8727 78.4586C45.5047 79.1918 46.3289 79.9411 46.4734 78.6987" stroke="black" stroke-width="0.75" stroke-linecap="round" stroke-linejoin="round"/>
<path fill-rule="evenodd" clip-rule="evenodd" d="M46.9429 78.8819C46.8217 79.7468 47.7459 79.9056 47.6188 78.7905L46.9429 78.8819Z" fill="#E3E4E5"/>
<path d="M46.9429 78.8819C46.8217 79.7468 47.7459 79.9056 47.6188 78.7905" stroke="black" stroke-width="0.75" stroke-linecap="round" stroke-linejoin="round"/>
<path d="M48.1803 78.888C48.41 78.7865 48.8669 78.4863 48.8901 77.9842L48.1803 78.888Z" fill="#E3E4E5"/>
<path d="M48.1803 78.888C48.41 78.7865 48.8669 78.4863 48.8901 77.9842" stroke="black" stroke-width="0.75" stroke-linecap="round" stroke-linejoin="round"/>
<path d="M70.0511 67.3289C69.5005 67.6446 68.7393 67.5097 68.2791 67.399C67.8363 67.2926 68.1674 67.1997 68.416 66.9515C68.7885 66.5797 69.2219 66.7318 69.7081 66.5338C71.1698 65.9387 71.3008 65.1537 71.3766 64.6004C71.807 65.3248 71.4887 66.5049 70.0511 67.3289Z" fill="#E3E4E5" stroke="black" stroke-width="0.75" stroke-linecap="round" stroke-linejoin="round"/>
<path fill-rule="evenodd" clip-rule="evenodd" d="M42.5153 71.1613C42.0724 71.6588 41.9843 72.6427 42.254 73.6684C42.7553 75.5755 42.45 75.8754 42.3059 77.7908C42.2814 78.1154 42.3892 78.5938 42.7003 79.0896C42.9447 79.479 42.9999 80.374 42.6285 80.7503C42.028 79.5625 42.4237 80.3501 42.06 79.5742C42.2541 80.1188 42.3892 80.5086 42.1187 81.1647C41.735 80.3957 41.4164 79.7747 41.4164 79.2062C41.4164 78.8628 41.4932 78.5266 41.5474 78.1653C42.3512 74.506 41.4164 74.2112 41.4164 72.3415C41.4164 71.1915 42.0561 69.4956 45.0979 69.5751C47.9138 68.1636 47.8078 68.815 50.1707 69.3705C50.6483 69.4828 53.0387 69.662 54.7514 69.7522C55.6465 69.7993 56.3644 69.4309 56.5253 69.3714C56.9943 69.1979 60.3855 67.7886 61.5055 67.8013C62.8685 66.3979 63.8314 66.1108 65.4322 66.1763C65.7843 65.9644 66.1737 65.8865 66.5622 65.8865C66.9494 65.8865 68.1935 66.0868 68.5432 66.3207C68.8939 66.5554 68.7407 66.6439 68.9977 66.9606C69.2133 67.2263 69.9548 67.3261 70.1459 68.1997C70.2756 68.7924 70.1945 69.2618 70.4679 69.7854L71.1119 71.0187C71.2875 71.355 71.7095 71.7664 71.4946 72.0645C71.2569 72.3943 70.9456 72.6683 70.5833 72.7408C70.2604 72.8055 69.8984 72.6861 69.5019 72.6499C69.1365 72.6165 69.1278 72.315 68.7881 72.2737C68.7394 72.6841 68.5608 73.0788 68.2201 73.3717C67.6543 73.858 66.9302 73.582 66.1106 74.2793C65.7349 75.6015 65.0488 76.873 64.8362 77.0717C63.17 78.6282 60.7743 78.3826 58.6334 78.2311C56.0798 78.0505 53.9348 78.5159 50.3809 77.64C49.5581 77.4372 48.7503 76.9768 47.879 76.2526C47.7146 76.4376 47.4501 76.8275 47.2971 77.0887C46.9415 77.696 45.9288 77.7877 45.4259 78.2141C45.0438 78.5381 44.7666 78.8174 44.5633 79.3337C44.1997 80.2571 44.4208 81.1062 44.5435 82.0955C44.5773 82.3682 44.6654 83.006 44.6827 83.2814C44.6933 83.4514 43.9443 83.5621 43.4068 83.3284C43.4285 82.8237 42.9247 82.801 42.8804 82.7496C42.8886 82.5146 43.0235 82.2102 43.0991 81.9539C43.2263 81.5229 43.3563 81.1027 43.3786 80.7376C43.4206 80.0478 43.2161 79.3419 43.3178 78.6574C43.3881 78.1852 43.0835 78.0623 43.0931 77.623C43.1041 77.1213 43.7865 76.3607 43.7067 75.8611C43.6068 75.2364 42.7249 74.8691 42.7495 73.5549C42.7608 72.9492 43.2275 71.7403 43.8586 70.8028C43.8854 70.5174 43.2057 70.386 42.5153 71.1613H42.5153Z" fill="#E3E4E5" stroke="black" stroke-width="0.75" stroke-linecap="round" stroke-linejoin="round"/>
<path fill-rule="evenodd" clip-rule="evenodd" d="M68.6248 64.6004C68.7447 66.0528 68.3644 66.5811 67.546 67.0576C67.0287 67.3588 66.3816 67.3735 65.9704 67.3436C65.5746 67.3148 65.4611 66.7459 65.6623 66.495C65.9636 66.1189 66.6912 66.284 67.1697 66.2173C67.9136 66.1135 68.4218 65.1718 68.6248 64.6004Z" fill="#E3E4E5" stroke="black" stroke-width="0.75" stroke-linecap="round" stroke-linejoin="round"/>
<path d="M65.4156 70.7697C65.4084 71.3323 65.7466 71.7308 66.4646 72.1398" stroke="black" stroke-width="0.75" stroke-linecap="round" stroke-linejoin="round"/>
<path d="M50.0212 74.1111C49.9606 74.2825 49.7137 74.4895 49.6399 74.5308C48.7579 75.0237 48.3312 75.6731 47.8791 76.2525" stroke="black" stroke-width="0.75" stroke-linecap="round" stroke-linejoin="round"/>
<path d="M64.1093 72.2847C64.6122 74.267 63.9107 75.6601 63.1952 76.7565" stroke="black" stroke-width="0.75" stroke-linecap="round" stroke-linejoin="round"/>
<path d="M66.1556 68.5363C66.0678 69.0177 66.1662 69.6211 66.531 70.399" stroke="black" stroke-width="0.75" stroke-linecap="round" stroke-linejoin="round"/>
<path d="M69.4531 69.0904C69.3233 68.9672 69.2219 68.9051 69.0873 68.8869C68.4713 68.7806 68.1285 69.5968 67.6066 68.8172C67.7076 68.6153 68.2363 68.3108 68.6102 68.5863C68.6994 68.652 68.796 68.8358 69.0873 68.8869" fill="#E3E4E5"/>
<path d="M69.4531 69.0904C69.3233 68.9672 69.2219 68.9051 69.0873 68.8869C68.4713 68.7806 68.1285 69.5968 67.6066 68.8172C67.7076 68.6153 68.2363 68.3108 68.6102 68.5863C68.6994 68.652 68.796 68.8358 69.0873 68.8869" stroke="black" stroke-width="0.75" stroke-linecap="round" stroke-linejoin="round"/>
<path d="M68.4019 68.4871C67.9562 68.4505 67.6689 68.4998 67.326 68.2361" stroke="black" stroke-width="0.75" stroke-linecap="round" stroke-linejoin="round"/>
<path d="M68.4058 68.7216C68.3558 68.5757 68.3402 68.5355 68.216 68.5743C68.0919 68.6131 68.0654 68.6818 68.0328 68.832C68.0009 68.9785 68.1392 69.1146 68.2636 69.0757C68.3881 69.0367 68.4558 68.868 68.4058 68.7216Z" fill="black" stroke="black" stroke-width="0.75" stroke-linecap="round" stroke-linejoin="round"/>
<path d="M66.6257 67.6191C66.5084 67.3761 66.3516 67.2757 66.1541 67.1994C65.7954 67.0607 65.2674 67.2362 64.7756 67.0911C64.301 66.9511 63.9505 66.9546 63.6213 66.6792C63.6599 67.1326 64.2862 68.8157 65.7843 68.0972C66.0147 67.9867 66.2532 68.3679 66.4987 68.2065" fill="#E3E4E5"/>
<path d="M66.6257 67.6191C66.5084 67.3761 66.3516 67.2757 66.1541 67.1994C65.7954 67.0607 65.2674 67.2362 64.7756 67.0911C64.301 66.9511 63.9505 66.9546 63.6213 66.6792C63.6599 67.1326 64.2862 68.8157 65.7843 68.0972C66.0147 67.9867 66.2532 68.3679 66.4987 68.2065" stroke="black" stroke-width="0.75" stroke-linecap="round" stroke-linejoin="round"/>
<path d="M70.2408 71.2873C70.4368 71.6746 71.2859 71.9126 70.2106 72.0952C70.0906 72.1156 69.9347 71.8496 69.9545 71.7268" stroke="black" stroke-width="0.75" stroke-linecap="round" stroke-linejoin="round"/>
<path d="M68.7881 72.2737C68.4346 72.2177 68.2787 71.7054 68.0192 71.2849" stroke="black" stroke-width="0.75" stroke-linecap="round" stroke-linejoin="round"/>
<path d="M66.1106 74.2794C65.7496 74.5659 65.5695 75.1208 65.0523 75.1589" stroke="black" stroke-width="0.75" stroke-linecap="round" stroke-linejoin="round"/>
<path d="M68.1531 72.4931C67.3752 72.4931 67.1338 72.3533 67.001 72.7087C66.87 73.0592 66.5878 72.89 66.3961 72.803L66.2809 73.5575" stroke="black" stroke-width="0.75" stroke-linecap="round" stroke-linejoin="round"/>
<path d="M66.4988 68.2065C66.3901 67.343 64.6684 68.2081 63.6214 66.6792" stroke="black" stroke-width="0.75" stroke-linecap="round" stroke-linejoin="round"/>
<path d="M61.0085 68.6581C61.0752 68.4271 61.2913 68.0735 61.5054 67.8012" stroke="black" stroke-width="0.75" stroke-linecap="round" stroke-linejoin="round"/>
<path d="M45.5276 70.2914C47.0605 69.2989 47.599 68.2132 49.9182 70.3375" stroke="black" stroke-width="0.75" stroke-linecap="round" stroke-linejoin="round"/>
<path fill-rule="evenodd" clip-rule="evenodd" d="M58.221 74.734C58.4826 75.5422 58.3949 76.343 58.2919 77.18C58.1699 78.1709 58.3257 78.9418 58.282 79.8479C58.2414 80.6936 58.0125 81.2988 57.6462 82.0827C57.4913 82.414 58.2642 82.3367 57.9493 82.654C57.7941 82.8105 57.9561 82.8256 58.0936 83.0291C58.233 83.2358 58.557 83.7462 58.9019 83.608C58.959 83.8414 59.5035 83.6956 59.4832 83.448C59.0158 82.7652 58.9787 81.8525 59.0984 81.2151C59.2456 80.4307 60.109 79.8682 60.2937 79.0972C60.3735 78.7636 60.5497 78.4546 60.7854 78.1767C61.581 77.2382 61.6014 76.7984 62.147 76.2957" fill="#E3E4E5"/>
<path d="M58.221 74.734C58.4826 75.5422 58.3949 76.343 58.2919 77.18C58.1699 78.1709 58.3257 78.9418 58.282 79.8479C58.2414 80.6936 58.0125 81.2988 57.6462 82.0827C57.4913 82.414 58.2642 82.3367 57.9493 82.654C57.7941 82.8105 57.9561 82.8256 58.0936 83.0291C58.233 83.2358 58.557 83.7462 58.9019 83.608C58.959 83.8414 59.5035 83.6956 59.4832 83.448C59.0158 82.7652 58.9787 81.8525 59.0984 81.2151C59.2456 80.4307 60.109 79.8682 60.2937 79.0972C60.3735 78.7636 60.5497 78.4546 60.7854 78.1767C61.581 77.2382 61.6014 76.7984 62.147 76.2957" stroke="black" stroke-width="0.75" stroke-linecap="round" stroke-linejoin="round"/>
<path fill-rule="evenodd" clip-rule="evenodd" d="M59.5876 84.3553C59.0326 84.3733 58.5847 84.1365 58.3074 83.7274C58.164 83.4587 57.9514 83.3697 58.2752 83.2422C58.7283 83.5488 59.1971 83.6292 59.4833 83.448C59.542 83.7352 59.5919 84.0753 59.5876 84.3553Z" fill="#E3E4E5" stroke="black" stroke-width="0.75" stroke-linecap="round" stroke-linejoin="round"/>
<path fill-rule="evenodd" clip-rule="evenodd" d="M59.1604 84.4466C58.5895 84.4283 58.1848 84.1385 57.9928 83.6708C57.9313 83.4546 57.9635 83.1947 58.0948 83.0251C58.405 83.3268 58.9538 83.5993 59.2083 83.5374C59.2084 83.8294 59.2212 84.1673 59.1604 84.4466Z" fill="#E3E4E5" stroke="black" stroke-width="0.75" stroke-linecap="round" stroke-linejoin="round"/>
<path d="M38.0624 2C37.5565 15.5576 31.2583 22.2461 23.5234 27.2309C33.9381 41.3021 35.1056 57.8591 24.0826 77.6928C38.0103 98.6895 69.7276 112.628 79.5001 128C89.2725 112.628 120.99 98.6895 134.918 77.6928C123.895 57.8591 125.062 41.3021 135.477 27.2309C127.742 22.2461 121.444 15.5576 120.938 2H38.0624ZM79.5001 26.2096C88.9983 26.2096 98.1075 29.7472 104.824 36.0442C111.54 42.3413 115.313 50.8819 115.313 59.7872C115.313 68.6926 111.54 77.2332 104.824 83.5302C98.1075 89.8272 88.9983 93.3648 79.5001 93.3648C70.0019 93.3648 60.8927 89.8272 54.1765 83.5302C47.4602 77.2332 43.6871 68.6926 43.6871 59.7872C43.6871 50.8819 47.4602 42.3413 54.1765 36.0442C60.8927 29.7472 70.0019 26.2096 79.5001 26.2096Z" fill="#EDC102" stroke="black"/>
<path d="M38.2942 2.21051C37.7912 15.7012 31.5281 22.3566 23.8364 27.3168C34.1929 41.3186 35.3539 57.7937 24.3925 77.5295C38.2423 98.4225 69.7824 112.293 79.5002 127.589C89.218 112.293 120.758 98.4225 134.608 77.5295C123.646 57.7937 124.808 41.3186 135.164 27.3168C127.472 22.3566 121.209 15.7012 120.706 2.21051L38.2942 2.21051Z" stroke="black" stroke-width="3"/>
<path d="M39.1965 33.4725V19.0059H45.0168C46.0413 19.0059 46.8236 19.052 47.3639 19.1441C48.1217 19.2625 48.7567 19.4895 49.2689 19.825C49.7811 20.1539 50.1916 20.6177 50.5004 21.2164C50.8161 21.815 50.974 22.4729 50.974 23.19C50.974 24.4202 50.5565 25.4629 49.7215 26.3181C48.8865 27.1668 47.3779 27.5911 45.1958 27.5911H41.2384V33.4725H39.1965ZM41.2384 25.8839H45.2273C46.5465 25.8839 47.4832 25.6537 48.0375 25.1932C48.5918 24.7327 48.869 24.0847 48.869 23.2492C48.869 22.6439 48.7041 22.1275 48.3743 21.6999C48.0515 21.2657 47.6235 20.9795 47.0903 20.8414C46.7464 20.7559 46.1114 20.7131 45.1852 20.7131H41.2384V25.8839Z" fill="black" stroke="black"/>
<path d="M107.73 33.4725L113.656 19.0059H115.855L122.17 33.4725H119.844L118.044 29.0911H111.593L109.898 33.4725H107.73ZM112.182 27.5319H117.413L115.803 23.5255C115.311 22.3084 114.947 21.3085 114.708 20.5256C114.512 21.4532 114.234 22.3742 113.877 23.2886L112.182 27.5319Z" fill="black" stroke="black"/>
<path d="M72.0344 20.8414V6.37482H75.1077L78.7599 16.6178C79.0967 17.5717 79.3423 18.2855 79.4966 18.7592C79.672 18.2329 79.9457 17.4599 80.3176 16.4402L84.0118 6.37482H86.7589V20.8414H84.7907V8.73328L80.3071 20.8414H78.4652L74.0026 8.52605V20.8414H72.0344Z" fill="black" stroke="black"/>
<path d="M79.5002 27.2621L73.9243 35.1039V37.7179H71.1363L62.7725 42.9458L71.1363 48.1736H73.9243V50.7876L79.5002 58.6294L85.0761 50.7876V48.1736H87.864L96.2279 42.9458L87.864 37.7179H85.0761V35.1039L79.5002 27.2621Z" fill="#008F4C" stroke="black" stroke-linejoin="round"/>
<path d="M79.5002 48.1736C82.5797 48.1736 85.0761 45.833 85.0761 42.9458C85.0761 40.0585 82.5797 37.7179 79.5002 37.7179C76.4207 37.7179 73.9243 40.0585 73.9243 42.9458C73.9243 45.833 76.4207 48.1736 79.5002 48.1736Z" fill="#E3E4E5" stroke="black" stroke-linejoin="round"/>
<path fill-rule="evenodd" clip-rule="evenodd" d="M56.4855 58.4245L54.3405 52.8513L48.3962 50.8402L54.3405 48.8291L56.4855 43.2559L58.6305 48.8291L64.5748 50.8402L58.6305 52.8513L56.4855 58.4245Z" fill="#0071BC" stroke="black"/>
<path fill-rule="evenodd" clip-rule="evenodd" d="M101.392 58.4245L99.247 52.8513L93.3027 50.8402L99.247 48.8291L101.392 43.2559L103.537 48.8291L109.481 50.8402L103.537 52.8513L101.392 58.4245Z" fill="#0071BC" stroke="black"/>
<path d="M106.589 61.2045C106.591 61.2152 106.579 61.353 106.562 61.5105C106.533 61.7892 106.529 61.8032 106.42 62.0226C106.357 62.1466 106.289 62.2745 106.267 62.3068L106.227 62.3654L106.583 62.5732L106.939 62.781L106.998 62.7135C107.031 62.6764 107.118 62.5717 107.192 62.4809C107.314 62.3315 107.354 62.3003 107.61 62.1554C107.766 62.0673 107.899 61.9927 107.905 61.9898C107.911 61.9869 108.001 62.062 108.105 62.1568C108.324 62.3565 108.325 62.3045 108.1 62.6974C107.971 62.9248 107.956 62.9425 107.748 63.1129C107.629 63.2108 107.528 63.2984 107.525 63.3077C107.519 63.3215 107.714 63.6038 107.939 63.909L107.982 63.967L108.262 63.8104C108.536 63.6572 108.549 63.6529 108.859 63.6099L109.176 63.566L109.278 63.8039L109.379 64.0418L109.13 64.2526C108.891 64.4559 108.871 64.4673 108.589 64.5686C108.429 64.6264 108.296 64.684 108.294 64.6967C108.292 64.7162 108.425 65.4204 108.439 65.4603C108.441 65.4678 108.583 65.4543 108.754 65.4302L109.064 65.3864L109.365 65.4602C109.531 65.5008 109.668 65.5383 109.67 65.5436C109.672 65.5489 109.672 65.6676 109.671 65.8074C109.668 66.0234 109.661 66.0641 109.625 66.0789C109.602 66.0884 109.461 66.1386 109.312 66.1904C109.034 66.2872 109.001 66.2901 108.494 66.2622C108.438 66.2591 108.435 66.2688 108.34 66.7074L108.259 67.0847L108.342 67.0992C108.388 67.1073 108.525 67.1415 108.647 67.1754C108.859 67.2345 108.877 67.2437 109.104 67.4144L109.339 67.5919L109.239 67.8423L109.138 68.0926L108.799 68.0794C108.459 68.0663 108.459 68.0662 108.274 67.9769C108.172 67.9278 108.054 67.8753 108.01 67.8603L107.932 67.833L107.709 68.1627C107.586 68.3441 107.485 68.5069 107.484 68.5245C107.484 68.5421 107.58 68.6272 107.699 68.7134C107.905 68.8633 107.921 68.8809 108.047 69.1055C108.12 69.2348 108.19 69.3578 108.203 69.3789C108.223 69.4132 108.205 69.4387 108.028 69.6204C107.859 69.7943 107.825 69.8202 107.791 69.7999C107.769 69.7869 107.639 69.7247 107.501 69.6616C107.254 69.548 107.249 69.5445 107.063 69.3344L106.874 69.122L106.517 69.3698L106.16 69.6177L106.304 69.8772C106.445 70.1314 106.449 70.1431 106.472 70.4394L106.497 70.742L106.24 70.8573L105.984 70.9726L105.793 70.7555C105.58 70.5129 105.56 70.4767 105.476 70.1862C105.439 70.0576 105.403 69.9798 105.379 69.9773C105.333 69.9723 104.58 70.1571 104.572 70.1753C104.569 70.1825 104.577 70.3161 104.591 70.4722L104.616 70.7559L104.519 71.0519C104.465 71.2147 104.413 71.3516 104.403 71.3562C104.374 71.3694 103.919 71.3931 103.89 71.383C103.875 71.378 103.823 71.2439 103.773 71.085C103.686 70.8034 103.684 70.7891 103.715 70.5161C103.732 70.362 103.743 70.23 103.74 70.2227C103.737 70.2153 103.551 70.1844 103.327 70.1539C102.93 70.0998 102.919 70.0998 102.901 70.1522C102.89 70.1818 102.844 70.3135 102.797 70.4447C102.715 70.6795 102.71 70.6874 102.51 70.9328L102.306 71.1822L102.054 71.0949L101.801 71.0076L101.838 70.6803L101.875 70.3531L102.017 70.0983C102.156 69.8475 102.158 69.8431 102.118 69.8177C102.038 69.766 101.485 69.4392 101.468 69.4334C101.459 69.4301 101.378 69.5163 101.289 69.6249C101.067 69.8956 101.081 69.8838 100.763 70.0633L100.479 70.2234L100.297 70.0545C100.15 69.9179 100.118 69.8758 100.129 69.834C100.137 69.8056 100.203 69.6743 100.275 69.5422C100.404 69.3087 100.414 69.2965 100.643 69.1011C100.773 68.9906 100.874 68.8906 100.868 68.8789C100.833 68.8081 100.423 68.2545 100.407 68.2551C100.395 68.2555 100.27 68.3205 100.128 68.3995C99.8809 68.5367 99.8548 68.5453 99.5504 68.5899L99.2317 68.6367L99.1283 68.398L99.025 68.1593L99.2706 67.9489C99.5091 67.7446 99.5245 67.7356 99.8029 67.6378C99.9606 67.5824 100.093 67.5292 100.097 67.5194C100.104 67.5038 99.9741 66.8069 99.9543 66.7522C99.95 66.7404 99.8253 66.7491 99.6771 66.7715C99.5289 66.7939 99.3856 66.8116 99.3586 66.8109C99.3317 66.8101 99.1773 66.7779 99.0156 66.7393L98.7214 66.669L98.7248 66.4163C98.7267 66.2773 98.7354 66.156 98.7441 66.1467C98.7528 66.1375 98.8964 66.0824 99.0631 66.0244C99.3566 65.9224 99.3749 65.9195 99.6396 65.9318C99.79 65.9389 99.9249 65.9401 99.9394 65.9347C99.9545 65.929 100.002 65.7559 100.051 65.5322L100.136 65.1396L100.064 65.1146C100.024 65.1009 99.8956 65.0682 99.7783 65.0419L99.5652 64.994L99.3163 64.808C99.1795 64.7057 99.063 64.6205 99.0576 64.6186C99.0521 64.6167 99.0991 64.5028 99.1621 64.3653L99.2765 64.1155L99.573 64.1227C99.8654 64.1297 99.8727 64.1311 100.102 64.2266C100.231 64.2799 100.364 64.3348 100.398 64.3486L100.461 64.3737L100.68 64.0537C100.8 63.8776 100.906 63.7186 100.914 63.7003C100.925 63.676 100.867 63.6201 100.7 63.4944C100.475 63.3256 100.467 63.3164 100.325 63.06C100.245 62.916 100.184 62.7892 100.188 62.7783C100.193 62.7674 100.279 62.6761 100.379 62.5754C100.588 62.3646 100.535 62.3673 100.911 62.548C101.139 62.6573 101.157 62.6712 101.327 62.8637C101.425 62.9744 101.511 63.0672 101.519 63.0699C101.538 63.0764 102.178 62.6311 102.207 62.5918C102.221 62.5724 102.189 62.4927 102.121 62.3778C101.968 62.1171 101.956 62.0756 101.927 61.7515L101.901 61.4608L102.157 61.3458L102.414 61.2308L102.619 61.4643C102.818 61.691 102.826 61.7058 102.908 61.9711C102.961 62.1437 103.004 62.242 103.025 62.2379C103.042 62.2344 103.231 62.1869 103.444 62.1325L103.83 62.0335L103.805 61.7472C103.781 61.4718 103.783 61.4517 103.857 61.219C103.987 60.807 103.95 60.8433 104.261 60.8274C104.5 60.8152 104.531 60.8184 104.541 60.8565C104.548 60.88 104.589 61.0155 104.633 61.1574C104.714 61.4218 104.715 61.4637 104.651 61.9536C104.647 61.9874 104.69 61.9975 105.041 62.0449C105.258 62.0742 105.448 62.0979 105.463 62.0976C105.481 62.0973 105.515 62.0144 105.576 61.8216L105.663 61.546L105.88 61.281L106.098 61.0161L106.342 61.1006C106.477 61.147 106.588 61.1938 106.589 61.2045ZM105.534 64.1047L105.139 65.0253L105.269 65.1676C105.439 65.354 105.57 65.653 105.591 65.9057L105.607 66.0899L106.551 66.4159L107.494 66.742L107.511 66.6674C107.567 66.4212 107.601 65.9897 107.586 65.7226C107.533 64.7475 107.055 63.9035 106.244 63.3531C106.149 63.2882 106.039 63.2236 106 63.2095L105.93 63.184L105.534 64.1046L105.534 64.1047ZM104.543 62.8255C104.051 62.8168 103.651 62.884 103.177 63.055C102.468 63.3108 101.855 63.7782 101.413 64.3994C101.345 64.4948 101.287 64.5778 101.284 64.5839C101.282 64.5899 101.703 64.7409 102.22 64.9194L103.16 65.244L103.298 65.1256C103.474 64.9748 103.839 64.8061 104.084 64.7625L104.267 64.73L104.624 63.8984C104.843 63.3883 104.986 63.0324 104.994 62.9781C105.005 62.895 105.001 62.8878 104.921 62.8601C104.874 62.8439 104.704 62.8283 104.543 62.8255ZM105.105 67.0764C104.868 67.275 104.584 67.4005 104.266 67.446L104.087 67.4717L103.689 68.3965C103.449 68.9555 103.299 69.3241 103.312 69.3283C103.378 69.3511 103.716 69.3793 103.94 69.3808C104.993 69.3878 106.015 68.926 106.731 68.1197C106.876 67.9569 107.044 67.7318 107.078 67.6553C107.093 67.62 107.035 67.5974 106.161 67.2953L105.228 66.9728L105.105 67.0764ZM100.879 65.6127C100.828 65.7887 100.789 66.2511 100.806 66.4982C100.87 67.4774 101.44 68.4374 102.235 68.9057C102.3 68.9444 102.369 68.9869 102.387 69C102.419 69.0225 102.444 68.969 102.824 68.087L103.226 67.15L103.129 67.0401C102.938 66.8241 102.818 66.5468 102.8 66.2778L102.79 66.1308L101.853 65.8071L100.917 65.4835L100.879 65.6127Z" fill="#E3E4E5" stroke="black" stroke-width="0.5"/>
<path fill-rule="evenodd" clip-rule="evenodd" d="M101.01 64.9965C100.259 66.7441 101.08 68.6556 102.844 69.265C104.608 69.8743 106.648 68.9512 107.399 67.2036C108.15 65.456 107.329 63.5445 105.565 62.9351C103.801 62.3257 101.762 63.2488 101.01 64.9965Z" fill="#E3E4E5" stroke="black" stroke-width="0.5"/>
<path fill-rule="evenodd" clip-rule="evenodd" d="M102.764 65.6023C102.425 66.3904 102.796 67.2523 103.591 67.5271C104.386 67.8019 105.306 67.3857 105.645 66.5976C105.984 65.8095 105.614 64.9476 104.818 64.6728C104.023 64.398 103.103 64.8143 102.764 65.6023Z" fill="#0071BC" stroke="black" stroke-width="0.5"/>
<path fill-rule="evenodd" clip-rule="evenodd" d="M103.338 65.8006C103.134 66.2747 103.357 66.7932 103.835 66.9586C104.314 67.1239 104.867 66.8735 105.071 66.3994C105.275 65.9253 105.052 65.4067 104.574 65.2414C104.095 65.0761 103.542 65.3265 103.338 65.8006Z" fill="#0071BC" stroke="black" stroke-width="0.5"/>
<path fill-rule="evenodd" clip-rule="evenodd" d="M27.7693 121.762C18.8731 123.355 12.8928 124.19 4.02563 125.933L11.3062 118.518L1.00015 114.715C0.955743 114.699 10.6727 112.723 16.9799 111.733L18.5012 111.494L18.5591 118.17C18.3826 119.137 19.3516 120.093 21.3462 119.604C22.6518 119.196 29.8058 117.497 30.0803 119.803C30.1018 119.985 30.0809 120.191 30.0112 120.425C29.8598 120.772 29.5066 121.426 27.7693 121.762Z" fill="#E3E4E5" stroke="black"/>
<path fill-rule="evenodd" clip-rule="evenodd" d="M30.0802 119.803C29.8058 117.497 22.6518 119.196 21.3461 119.604C19.3516 120.093 18.3825 119.137 18.559 118.17C18.6579 117.628 19.1167 117.083 19.9564 116.786C21.6936 115.821 27.4897 115.175 29.7423 114.624L30.0802 119.803Z" fill="#E3E4E5" stroke="black"/>
<path fill-rule="evenodd" clip-rule="evenodd" d="M131.231 121.762C140.127 123.355 146.107 124.19 154.974 125.933L147.694 118.518L158 114.715C158.044 114.699 148.327 112.723 142.02 111.733L140.499 111.494L140.441 118.17C140.617 119.137 139.648 120.093 137.654 119.604C136.348 119.196 129.194 117.497 128.92 119.803C128.898 119.985 128.919 120.191 128.989 120.425C129.14 120.772 129.493 121.426 131.231 121.762H131.231Z" fill="#E3E4E5" stroke="black"/>
<path fill-rule="evenodd" clip-rule="evenodd" d="M29.7423 114.624C52.4385 110.843 74.3819 110.784 79.4997 110.717C84.6177 110.784 106.561 110.843 129.257 114.624C131.51 115.175 137.306 115.821 139.043 116.786C139.883 117.083 140.342 117.628 140.44 118.17L140.498 111.494L140.536 107.148C140.479 106.245 140.268 105.858 139.462 105.334C115.409 98.9672 90.7841 98.8989 79.4997 98.8353C68.2154 98.8989 43.5909 98.9672 19.5379 105.334C18.7313 105.858 18.5207 106.245 18.4636 107.148L18.5011 111.494L18.5591 118.17C18.6579 117.628 19.1167 117.083 19.9564 116.786C21.6936 115.821 27.4897 115.175 29.7423 114.624H29.7423Z" fill="#E3E4E5" stroke="black"/>
<path fill-rule="evenodd" clip-rule="evenodd" d="M128.919 119.803C129.194 117.497 136.348 119.196 137.653 119.604C139.648 120.093 140.617 119.137 140.44 118.17C140.342 117.628 139.883 117.083 139.043 116.786C137.306 115.821 131.51 115.175 129.257 114.624L128.919 119.803Z" fill="#E3E4E5" stroke="black"/>
<path fill-rule="evenodd" clip-rule="evenodd" d="M28.3948 112.351L29.6948 106.011L30.5971 105.859L34.3178 111.359L33.3637 111.519L32.2831 109.846L29.6368 110.289L29.2841 112.203L28.3948 112.351ZM29.7567 109.609L31.9023 109.25L30.9287 107.717C30.6321 107.251 30.4043 106.866 30.2452 106.562C30.2371 106.956 30.1954 107.352 30.1201 107.752L29.7567 109.609ZM29.5434 105.66L29.9016 104.431L30.9204 104.26L30.1866 105.552L29.5434 105.66Z" fill="black" stroke="black" stroke-width="0.5"/>
<path fill-rule="evenodd" clip-rule="evenodd" d="M35.0111 111.257L34.0337 105.3L36.8511 104.894C37.4174 104.812 37.8569 104.804 38.1694 104.87C38.4815 104.933 38.7479 105.087 38.9686 105.333C39.1893 105.578 39.3266 105.865 39.3803 106.193C39.4497 106.615 39.3622 106.993 39.1179 107.325C38.8736 107.657 38.4531 107.906 37.8563 108.072C38.0952 108.141 38.2805 108.215 38.4121 108.296C38.6923 108.472 38.9683 108.702 39.2399 108.988L40.6112 110.45L39.5536 110.602L38.5094 109.484C38.2051 109.162 37.9579 108.917 37.7679 108.751C37.5778 108.584 37.413 108.472 37.2734 108.414C37.1367 108.356 37.0009 108.322 36.866 108.311C36.7675 108.306 36.6099 108.319 36.3932 108.35L35.418 108.491L35.852 111.136L35.0111 111.257ZM35.306 107.808L37.1134 107.547C37.4977 107.492 37.7923 107.412 37.997 107.307C38.2012 107.2 38.3464 107.057 38.4324 106.879C38.518 106.697 38.545 106.51 38.5135 106.318C38.4672 106.036 38.3194 105.82 38.07 105.67C37.8235 105.52 37.4648 105.479 36.9938 105.547L34.9826 105.837L35.306 107.808Z" fill="black" stroke="black" stroke-width="0.5"/>
<path fill-rule="evenodd" clip-rule="evenodd" d="M41.4334 110.35L40.6042 104.373L45.214 103.811L45.3118 104.516L41.5458 104.975L41.7997 106.806L45.3266 106.376L45.4238 107.077L41.897 107.507L42.1792 109.542L46.0931 109.065L46.191 109.77L41.4334 110.35Z" fill="black" stroke="black" stroke-width="0.5"/>
<path fill-rule="evenodd" clip-rule="evenodd" d="M46.6655 109.715L48.4242 103.472L49.3354 103.379L52.647 109.104L51.6835 109.203L50.7273 107.464L48.0548 107.737L47.5636 109.623L46.6655 109.715ZM48.2239 107.066L50.3907 106.845L49.531 105.253C49.269 104.77 49.0697 104.371 48.9333 104.057C48.8965 104.449 48.826 104.843 48.7218 105.236L48.2239 107.066Z" fill="black" stroke="black" stroke-width="0.5"/>
<path fill-rule="evenodd" clip-rule="evenodd" d="M55.2983 108.877L54.8064 102.867L56.0832 102.775L57.9488 106.921C58.1211 107.307 58.2474 107.597 58.3277 107.789C58.3826 107.565 58.47 107.235 58.5899 106.801L59.7824 102.509L60.9236 102.427L61.4155 108.437L60.5979 108.495L60.1861 103.465L58.7352 108.629L57.97 108.685L55.6972 103.702L56.116 108.818L55.2983 108.877Z" fill="black" stroke="black" stroke-width="0.5"/>
<path fill-rule="evenodd" clip-rule="evenodd" d="M62.8125 108.36L62.4714 102.341L67.1134 102.11L67.1537 102.82L63.3613 103.009L63.4657 104.853L67.0173 104.676L67.0573 105.382L63.5057 105.559L63.6218 107.608L67.5631 107.411L67.6034 108.122L62.8125 108.36Z" fill="black" stroke="black" stroke-width="0.5"/>
<path fill-rule="evenodd" clip-rule="evenodd" d="M70.4215 108.027L70.2339 102.714L68.1169 102.779L68.0918 102.068L73.1848 101.91L73.2099 102.621L71.0842 102.687L71.2718 108.001L70.4215 108.027Z" fill="black" stroke="black" stroke-width="0.5"/>
<path fill-rule="evenodd" clip-rule="evenodd" d="M74.3229 107.915L74.2441 101.888L77.0944 101.855C77.6674 101.849 78.1037 101.898 78.4033 102.005C78.7029 102.108 78.9437 102.296 79.1256 102.568C79.3075 102.84 79.4006 103.142 79.4049 103.473C79.4105 103.901 79.2676 104.263 78.9762 104.56C78.6847 104.856 78.2311 105.048 77.6153 105.135C77.8417 105.233 78.0141 105.332 78.1323 105.429C78.3836 105.64 78.6224 105.904 78.8488 106.222L79.9884 107.85L78.9184 107.862L78.0513 106.618C77.7981 106.259 77.5899 105.985 77.4266 105.795C77.2633 105.605 77.1168 105.472 76.9872 105.397C76.8605 105.321 76.7312 105.27 76.5992 105.241C76.5025 105.223 76.3445 105.215 76.1253 105.218L75.1386 105.229L75.1736 107.905L74.3229 107.915ZM75.1296 104.538L76.9582 104.517C77.347 104.513 77.6505 104.472 77.8688 104.396C78.0871 104.316 78.2521 104.194 78.364 104.028C78.4758 103.86 78.5305 103.678 78.5279 103.483C78.5242 103.198 78.41 102.965 78.1855 102.784C77.9638 102.603 77.6147 102.515 77.1382 102.521L75.1035 102.544L75.1296 104.538Z" fill="black" stroke="black" stroke-width="0.5"/>
<path fill-rule="evenodd" clip-rule="evenodd" d="M80.5764 104.915C80.5885 103.914 80.8844 103.135 81.4642 102.576C82.044 102.015 82.787 101.739 83.6933 101.749C84.2868 101.755 84.8201 101.894 85.2934 102.165C85.7668 102.436 86.1248 102.811 86.3675 103.29C86.6132 103.767 86.7325 104.307 86.7252 104.91C86.7178 105.521 86.5797 106.067 86.3108 106.546C86.0419 107.026 85.6647 107.388 85.1794 107.632C84.694 107.874 84.1722 107.992 83.6138 107.986C83.0087 107.979 82.4695 107.837 81.9963 107.557C81.523 107.278 81.1665 106.9 80.9266 106.424C80.6868 105.947 80.57 105.444 80.5764 104.915ZM81.4533 104.937C81.4446 105.663 81.6452 106.238 82.0553 106.662C82.4683 107.083 82.9891 107.297 83.6176 107.303C84.2579 107.31 84.7866 107.105 85.2039 106.687C85.6241 106.269 85.8389 105.672 85.8482 104.897C85.8541 104.406 85.7701 103.978 85.5962 103.611C85.4252 103.242 85.1699 102.956 84.8303 102.752C84.4936 102.545 84.1133 102.44 83.6894 102.435C83.0872 102.429 82.5659 102.618 82.1257 103.003C81.6883 103.385 81.4642 104.029 81.4533 104.937Z" fill="black" stroke="black" stroke-width="0.5"/>
<path fill-rule="evenodd" clip-rule="evenodd" d="M87.7808 107.947L88.001 101.923L90.4247 102.001C90.8513 102.014 91.1764 102.044 91.4 102.09C91.7138 102.149 91.9747 102.252 92.1829 102.399C92.3912 102.543 92.5551 102.741 92.6745 102.995C92.7969 103.248 92.8526 103.524 92.8417 103.823C92.823 104.335 92.6333 104.764 92.2725 105.109C91.9119 105.451 91.2772 105.607 90.3685 105.578L88.7206 105.525L88.631 107.974L87.7808 107.947ZM88.7466 104.814L90.4077 104.868C90.957 104.885 91.3506 104.802 91.5884 104.618C91.8262 104.433 91.9515 104.167 91.9642 103.819C91.9735 103.567 91.9127 103.35 91.7818 103.168C91.654 102.982 91.4802 102.857 91.2602 102.793C91.1183 102.753 90.8546 102.726 90.4689 102.714L88.8253 102.661L88.7466 104.814Z" fill="black" stroke="black" stroke-width="0.5"/>
<path fill-rule="evenodd" clip-rule="evenodd" d="M93.6988 105.204C93.7603 104.205 94.0945 103.44 94.7013 102.907C95.3083 102.371 96.0642 102.128 96.969 102.177C97.5615 102.209 98.0874 102.371 98.5468 102.662C99.0062 102.953 99.3453 103.344 99.5641 103.833C99.7859 104.32 99.8783 104.865 99.8412 105.467C99.8036 106.077 99.6386 106.616 99.3462 107.084C99.0538 107.551 98.6592 107.896 98.1623 108.119C97.6655 108.339 97.1384 108.434 96.5809 108.404C95.9767 108.371 95.4452 108.205 94.9863 107.906C94.5274 107.606 94.19 107.213 93.974 106.727C93.758 106.24 93.6662 105.732 93.6988 105.204ZM94.5736 105.264C94.5289 105.989 94.7009 106.572 95.0896 107.014C95.4813 107.452 95.991 107.688 96.6185 107.722C97.2577 107.757 97.7961 107.575 98.2336 107.176C98.674 106.777 98.9181 106.19 98.9658 105.415C98.996 104.926 98.9333 104.494 98.7777 104.12C98.6251 103.744 98.3843 103.447 98.0551 103.229C97.729 103.008 97.3543 102.886 96.9311 102.863C96.3299 102.83 95.7998 102.997 95.341 103.362C94.8852 103.724 94.6295 104.358 94.5736 105.264Z" fill="black" stroke="black" stroke-width="0.5"/>
<path fill-rule="evenodd" clip-rule="evenodd" d="M100.71 108.548L101.223 102.54L102.071 102.603L101.619 107.903L104.775 108.14L104.714 108.849L100.71 108.548Z" fill="black" stroke="black" stroke-width="0.5"/>
<path fill-rule="evenodd" clip-rule="evenodd" d="M105.871 108.955L106.474 102.954L107.322 103.029L106.718 109.03L105.871 108.955Z" fill="black" stroke="black" stroke-width="0.5"/>
<path fill-rule="evenodd" clip-rule="evenodd" d="M109.833 109.328L110.445 104.043L108.34 103.829L108.422 103.121L113.488 103.638L113.406 104.345L111.291 104.129L110.679 109.415L109.833 109.328Z" fill="black" stroke="black" stroke-width="0.5"/>
<path fill-rule="evenodd" clip-rule="evenodd" d="M112.336 109.577L115.617 103.9L116.525 104.011L118.302 110.307L117.341 110.19L116.85 108.288L114.184 107.962L113.232 109.687L112.336 109.577ZM114.517 107.348L116.679 107.612L116.244 105.875C116.111 105.348 116.018 104.916 115.964 104.581C115.829 104.954 115.662 105.321 115.462 105.68L114.517 107.348Z" fill="black" stroke="black" stroke-width="0.5"/>
<path fill-rule="evenodd" clip-rule="evenodd" d="M118.975 110.402L119.971 104.447L120.833 104.574L123.387 109.74L124.169 105.065L124.975 105.183L123.979 111.138L123.117 111.012L120.564 105.841L119.781 110.521L118.975 110.402Z" fill="black" stroke="black" stroke-width="0.5"/>
<path fill-rule="evenodd" clip-rule="evenodd" d="M124.698 111.246L128.294 105.739L129.195 105.895L130.615 112.271L129.662 112.105L129.278 110.183L126.635 109.725L125.587 111.4L124.698 111.246ZM127.002 109.128L129.145 109.499L128.809 107.743C128.706 107.21 128.637 106.774 128.602 106.436C128.447 106.802 128.259 107.16 128.039 107.509L127.002 109.128Z" fill="black" stroke="black" stroke-width="0.5"/>
</svg>
